<svg width="24" height="24" viewBox="0 0 24 24" fill="none" xmlns="http://www.w3.org/2000/svg">
<path fill-rule="evenodd" clip-rule="evenodd" d="M2.99999 1.58579L22.4142 21L21 22.4142L17.2029 18.6171C14.4557 20.1489 11.3637 20.4129 8.48672 19.3855C5.56512 18.3421 2.94134 15.9967 1.11177 12.4595L0.874146 12.0001L1.11176 11.5407C2.19818 9.44018 3.56369 7.76035 5.10821 6.52243L1.58578 3L2.99999 1.58579ZM6.53258 7.94681C5.27049 8.91666 4.10424 10.2615 3.13494 12.0001C4.74895 14.8953 6.90753 16.6978 9.15938 17.502C11.307 18.269 13.6019 18.1527 15.7201 17.1343L14.0319 15.4461C13.4359 15.7981 12.7403 16 12 16C9.79086 16 8 14.2092 8 12C8 11.2597 8.20196 10.5642 8.55395 9.96817L6.53258 7.94681ZM10.0675 11.4818L12.5182 13.9325C12.3533 13.9765 12.1797 14 12 14C10.8954 14 10 13.1046 10 12C10 11.8203 10.0235 11.6467 10.0675 11.4818Z" fill="black"/>
<path d="M10.8779 6.07659C14.4512 5.58785 18.3273 7.44602 20.8651 11.9999C20.4495 12.7452 19.9979 13.4181 19.518 14.0201L18.8947 14.8021L20.4587 16.0487L21.082 15.2667C21.7445 14.4356 22.3504 13.4991 22.8882 12.4595L23.1259 12L22.8882 11.5406C20.0548 6.06257 15.3041 3.45257 10.6069 4.09503L9.61612 4.23055L9.88715 6.2121L10.8779 6.07659Z" fill="black"/>
</svg>
