<svg width="24" height="24" viewBox="0 0 24 24" fill="none" xmlns="http://www.w3.org/2000/svg">
<path d="M1.99999 12.0001L1.11177 11.5407L0.874146 12.0001L1.11177 12.4595L1.99999 12.0001ZM22 12L22.8882 12.4594L23.1258 12L22.8882 11.5406L22 12ZM2.88821 12.4595C5.16608 8.05553 8.65288 6.00008 12 6.00006C15.3471 6.00004 18.8339 8.05543 21.1118 12.4594L22.8882 11.5406C20.3386 6.61125 16.2391 4.00003 12 4.00006C7.76083 4.00009 3.66135 6.61137 1.11177 11.5407L2.88821 12.4595ZM1.11177 12.4595C3.66136 17.3889 7.76084 20.0001 12 20.0001C16.2392 20 20.3386 17.3888 22.8882 12.4594L21.1118 11.5406C18.8339 15.9446 15.3471 18 12 18.0001C8.65287 18.0001 5.16608 15.9447 2.88821 11.5407L1.11177 12.4595ZM14 12C14 13.1046 13.1046 14 12 14V16C14.2091 16 16 14.2091 16 12H14ZM12 14C10.8954 14 9.99999 13.1046 9.99999 12H7.99999C7.99999 14.2091 9.79085 16 12 16V14ZM9.99999 12C9.99999 10.8954 10.8954 10 12 10V8.00001C9.79085 8.00001 7.99999 9.79087 7.99999 12H9.99999ZM12 10C13.1046 10 14 10.8954 14 12H16C16 9.79087 14.2091 8.00001 12 8.00001V10Z" fill="black"/>
</svg>
