<svg width="24" height="24" viewBox="0 0 24 24" fill="none" xmlns="http://www.w3.org/2000/svg">
<path fill-rule="evenodd" clip-rule="evenodd" d="M5.5 9C5.776 9 6.033 9.223 6.141 9.477C6.18433 9.579 6.24167 9.695 6.313 9.825C6.553 10.26 6.926 10.763 7.434 11.239C8.442 12.184 9.954 13 12 13C14.046 13 15.558 12.184 16.566 11.24C17.074 10.763 17.446 10.26 17.687 9.825C17.7583 9.695 17.8153 9.579 17.858 9.477C17.968 9.223 18.224 9 18.5 9C18.776 9 18.995 9.225 18.917 9.49C18.715 10.172 18.147 11.14 17.212 12.005L18.354 13.146C18.4479 13.2399 18.5006 13.3672 18.5006 13.5C18.5006 13.6328 18.4479 13.7601 18.354 13.854C18.2601 13.9479 18.1328 14.0006 18 14.0006C17.8672 14.0006 17.7399 13.9479 17.646 13.854L16.429 12.636C15.8482 13.0443 15.2117 13.367 14.539 13.594L14.985 15.379C15.0137 15.5064 14.9914 15.64 14.9228 15.7512C14.8543 15.8623 14.7449 15.9423 14.6182 15.9739C14.4915 16.0055 14.3575 15.9863 14.2447 15.9203C14.132 15.8544 14.0495 15.747 14.015 15.621L13.572 13.851C13.0542 13.9524 12.5276 14.0023 12 14C11.4723 14.002 10.9458 13.9517 10.428 13.85L9.985 15.621C9.95046 15.747 9.86801 15.8544 9.75528 15.9203C9.64255 15.9863 9.50849 16.0055 9.38177 15.9739C9.25505 15.9423 9.14573 15.8623 9.07719 15.7512C9.00865 15.64 8.98633 15.5064 9.015 15.379L9.461 13.594C8.78831 13.367 8.15178 13.0443 7.571 12.636L6.354 13.854C6.30751 13.9005 6.25232 13.9374 6.19158 13.9625C6.13084 13.9877 6.06574 14.0006 6 14.0006C5.93426 14.0006 5.86915 13.9877 5.80842 13.9625C5.74768 13.9374 5.69249 13.9005 5.646 13.854C5.59951 13.8075 5.56263 13.7523 5.53748 13.6916C5.51232 13.6308 5.49937 13.5657 5.49937 13.5C5.49937 13.4343 5.51232 13.3692 5.53748 13.3084C5.56263 13.2477 5.59951 13.1925 5.646 13.146L6.788 12.004C5.853 11.14 5.285 10.172 5.083 9.49C5.005 9.225 5.223 9 5.5 9Z" fill="black"/>
</svg>
